<?xml version="1.0" encoding="UTF-8" standalone="no"?>
<svg
   xmlns:dc="http://purl.org/dc/elements/1.1/"
   xmlns:cc="http://creativecommons.org/ns#"
   xmlns:rdf="http://www.w3.org/1999/02/22-rdf-syntax-ns#"
   xmlns:svg="http://www.w3.org/2000/svg"
   xmlns="http://www.w3.org/2000/svg"
   xmlns:sodipodi="http://sodipodi.sourceforge.net/DTD/sodipodi-0.dtd"
   xmlns:inkscape="http://www.inkscape.org/namespaces/inkscape"
   xml:space="preserve"
   style="clip-rule:evenodd;fill-rule:evenodd;image-rendering:optimizeQuality;shape-rendering:geometricPrecision;text-rendering:geometricPrecision"
   viewBox="0 0 2068 2088.905"
   x="0px"
   y="0px"
   version="1.1"
   id="svg28"
   sodipodi:docname="noun_761688_cc.svg"
   width="2068"
   height="2088.905"
   inkscape:version="0.92.2 5c3e80d, 2017-08-06"><metadata
     id="metadata32"><rdf:RDF><cc:Work
         rdf:about=""><dc:format>image/svg+xml</dc:format><dc:type
           rdf:resource="http://purl.org/dc/dcmitype/StillImage" /><dc:title></dc:title></cc:Work></rdf:RDF></metadata><sodipodi:namedview
     pagecolor="#ffffff"
     bordercolor="#666666"
     borderopacity="1"
     objecttolerance="10"
     gridtolerance="10"
     guidetolerance="10"
     inkscape:pageopacity="0"
     inkscape:pageshadow="2"
     inkscape:window-width="640"
     inkscape:window-height="480"
     id="namedview30"
     showgrid="false"
     fit-margin-top="10"
     fit-margin-left="10"
     fit-margin-right="10"
     fit-margin-bottom="10"
     inkscape:zoom="0.0921875"
     inkscape:cx="1034"
     inkscape:cy="798.905"
     inkscape:window-x="0"
     inkscape:window-y="0"
     inkscape:window-maximized="0"
     inkscape:current-layer="svg28" /><defs
     id="defs4"><style
       type="text/css"
       id="style2">
   
    .fil0 {fill:none}
    .fil1 {fill:lawngreen;fill-rule:nonzero}
   
  </style></defs><rect
     class="fil0"
     width="2048"
     height="2048"
     id="rect6"
     x="10"
     y="10"
     style="fill:none" /><g
     id="g22"
     transform="translate(10,10)"><path
       class="fil1"
       d="m 931.811,964.903 c 4.55552,-12.4264 18.3236,-18.8055 30.75,-14.25 12.4264,4.55552 18.8055,18.3236 14.25,30.75 L 684.482,1774.01 c -4.55552,12.4264 -18.3236,18.8055 -30.75,14.25 -12.4264,-4.5555 -18.8055,-18.3236 -14.25,-30.75 z"
       id="path8"
       inkscape:connector-curvature="0"
       style="fill:#00ff00;fill-rule:nonzero" /><path
       class="fil1"
       d="m 1071.19,981.404 c -4.5555,-12.4264 1.8236,-26.1945 14.25,-30.75 12.4264,-4.55552 26.1945,1.82362 30.75,14.25 l 292.329,792.607 c 4.5555,12.4264 -1.8236,26.1945 -14.25,30.75 -12.4264,4.5555 -26.1945,-1.8236 -30.75,-14.25 z"
       id="path10"
       inkscape:connector-curvature="0"
       style="fill:#00ff00;fill-rule:nonzero" /><path
       class="fil1"
       d="m 1024,646.347 c 50.6433,0 96.4961,20.5299 129.686,53.7201 33.1902,33.1902 53.7201,79.043 53.7201,129.686 0,50.6433 -20.5299,96.4961 -53.7201,129.686 -33.1902,33.1902 -79.043,53.7201 -129.686,53.7201 -50.6433,0 -96.4961,-20.5299 -129.686,-53.7201 -33.1902,-33.1902 -53.7201,-79.043 -53.7201,-129.686 0,-50.6433 20.5299,-96.4961 53.7201,-129.686 C 927.5042,666.8769 973.357,646.347 1024,646.347 Z m 95.7485,87.6579 c -24.502,-24.502 -58.356,-39.6579 -95.7485,-39.6579 -37.3925,0 -71.2465,15.1559 -95.7485,39.6579 -24.502,24.502 -39.6579,58.356 -39.6579,95.7485 0,37.3925 15.1559,71.2465 39.6579,95.7485 24.502,24.502 58.356,39.6579 95.7485,39.6579 37.3925,0 71.2465,-15.1559 95.7485,-39.6579 24.502,-24.502 39.6579,-58.356 39.6579,-95.7485 0,-37.3925 -15.1559,-71.2465 -39.6579,-95.7485 z"
       id="path12"
       inkscape:connector-curvature="0"
       style="fill:#00ff00;fill-rule:nonzero" /><path
       class="fil1"
       d="m 814.085,1039.67 c 9.37087,9.3709 9.37087,24.5669 0,33.9378 -9.37087,9.3709 -24.5669,9.3709 -33.9378,0 -67.3394,-67.3394 -101.009,-155.599 -101.009,-243.853 0,-88.2544 33.6697,-176.515 101.009,-243.853 67.3382,-67.3382 155.599,-101.009 243.853,-101.009 88.2544,0 176.515,33.6709 243.853,101.009 67.3394,67.3382 101.009,155.599 101.009,243.853 0,88.2544 -33.6697,176.514 -101.009,243.853 -9.3709,9.3709 -24.5669,9.3709 -33.9378,0 -9.3709,-9.3709 -9.3709,-24.5669 0,-33.9378 57.9638,-57.9638 86.9469,-133.939 86.9469,-209.915 0,-75.9756 -28.9819,-151.951 -86.9469,-209.915 -57.9638,-57.9638 -133.939,-86.9469 -209.915,-86.9469 -75.9756,0 -151.951,28.9831 -209.915,86.9469 -57.965,57.9638 -86.9469,133.939 -86.9469,209.915 0,75.9756 28.9831,151.951 86.9469,209.915 z"
       id="path14"
       inkscape:connector-curvature="0"
       style="fill:#00ff00;fill-rule:nonzero" /><path
       class="fil1"
       d="m 652.234,1201.52 c 9.37087,9.3709 9.37087,24.5669 0,33.9378 -9.37087,9.3709 -24.5669,9.3709 -33.9378,0 -112.032,-112.032 -168.05,-258.869 -168.05,-405.704 0,-146.832 56.0174,-293.671 168.05,-405.703 112.032,-112.034 258.872,-168.051 405.704,-168.051 146.832,0 293.672,56.0174 405.704,168.051 112.032,112.032 168.05,258.871 168.05,405.703 0,146.835 -56.0174,293.672 -168.05,405.704 -9.3709,9.3709 -24.5669,9.3709 -33.9378,0 -9.3709,-9.3709 -9.3709,-24.5669 0,-33.9378 102.657,-102.657 153.988,-237.212 153.988,-371.766 0,-134.554 -51.3307,-269.108 -153.988,-371.765 C 1293.1084,355.33 1158.5534,304 1024.0004,304 c -134.554,0 -269.108,51.3296 -371.766,153.989 -102.657,102.657 -153.988,237.212 -153.988,371.765 0,134.555 51.3307,269.11 153.988,371.766 z"
       id="path16"
       inkscape:connector-curvature="0"
       style="fill:#00ff00;fill-rule:nonzero" /><path
       class="fil1"
       d="m 863.818,1211.52 c -11.8559,-5.798 -16.7658,-20.1118 -10.9677,-31.9677 5.79804,-11.8559 20.1118,-16.7658 31.9677,-10.9677 l 365.535,179.408 c 11.8559,5.798 16.7658,20.1118 10.9677,31.9677 -1.8886,3.861 -4.6807,6.9839 -7.9949,9.241 l 0.027,0.04 -577.87002,396.304 c -10.924,7.4551 -25.826,4.6429 -33.2811,-6.2811 -7.45512,-10.924 -4.64292,-25.826 6.28111,-33.2811 l 544.06501,-373.12 -328.72901,-161.343 z"
       id="path18"
       inkscape:connector-curvature="0"
       style="fill:#00ff00;fill-rule:nonzero" /><path
       class="fil1"
       d="m 1164.01,1170.82 c 11.8559,-5.798 26.1697,-0.8882 31.9677,10.9677 5.798,11.8559 0.8882,26.1697 -10.9677,31.9677 l -328.729,161.343 544.063,373.12 c 10.924,7.4551 13.7362,22.3571 6.2811,33.2811 -7.4551,10.924 -22.3571,13.7362 -33.2811,6.2811 l -577.86899,-396.304 0.0272,-0.04 c -3.31418,-2.2571 -6.1063,-5.38 -7.99489,-9.241 -5.79804,-11.8559 -0.88819,-26.1697 10.9677,-31.9677 L 1164.01,1170.8198 Z"
       id="path20"
       inkscape:connector-curvature="0"
       style="fill:#00ff00;fill-rule:nonzero" /></g><text
     x="10"
     y="2073"
     font-size="5px"
     font-weight="bold"
     id="text24"
     style="font-weight:bold;font-size:5px;font-family:'Helvetica Neue', Helvetica, Arial-Unicode, Arial, Sans-serif;fill:#00ff00">Created by IYIKON</text>
<text
     x="10"
     y="2078"
     font-size="5px"
     font-weight="bold"
     id="text26"
     style="font-weight:bold;font-size:5px;font-family:'Helvetica Neue', Helvetica, Arial-Unicode, Arial, Sans-serif;fill:#00ff00">from the Noun Project</text>
</svg>